<svg width="18" height="16" viewBox="0 0 18 16" fill="none" xmlns="http://www.w3.org/2000/svg">
<path id="email" d="M15.6667 0.72728H2.33332C1.41666 0.72728 0.67499 1.54546 0.67499 2.54546L0.666656 13.4546C0.666656 14.4546 1.41666 15.2727 2.33332 15.2727H15.6667C16.5833 15.2727 17.3333 14.4546 17.3333 13.4546V2.54546C17.3333 1.54546 16.5833 0.72728 15.6667 0.72728ZM15.3333 4.59092L9.44166 8.6091C9.17499 8.79092 8.82499 8.79092 8.55832 8.6091L2.66666 4.59092C2.5831 4.53974 2.50992 4.47061 2.45156 4.38769C2.39321 4.30478 2.35088 4.20981 2.32714 4.10853C2.3034 4.00725 2.29874 3.90177 2.31345 3.79847C2.32817 3.69517 2.36194 3.5962 2.41272 3.50755C2.46351 3.41891 2.53026 3.34242 2.60893 3.28273C2.6876 3.22304 2.77655 3.18138 2.8704 3.16028C2.96426 3.13918 3.06106 3.13907 3.15495 3.15996C3.24885 3.18085 3.33788 3.22231 3.41666 3.28183L8.99999 7.09092L14.5833 3.28183C14.6621 3.22231 14.7511 3.18085 14.845 3.15996C14.9389 3.13907 15.0357 3.13918 15.1296 3.16028C15.2234 3.18138 15.3124 3.22304 15.3911 3.28273C15.4697 3.34242 15.5365 3.41891 15.5873 3.50755C15.638 3.5962 15.6718 3.69517 15.6865 3.79847C15.7012 3.90177 15.6966 4.00725 15.6728 4.10853C15.6491 4.20981 15.6068 4.30478 15.5484 4.38769C15.4901 4.47061 15.4169 4.53974 15.3333 4.59092Z" fill="white"/>
</svg>
