<svg width="18" height="18" viewBox="0 0 18 18" fill="none" xmlns="http://www.w3.org/2000/svg">
<path id="insta" d="M9.87381 0.501198C10.4941 0.498818 11.1143 0.505052 11.7344 0.519897L11.8993 0.525847C12.0896 0.532647 12.2775 0.541146 12.5044 0.551346C13.4088 0.593844 14.0258 0.736636 14.5673 0.946576C15.1282 1.16246 15.6008 1.45485 16.0734 1.92743C16.5055 2.35207 16.8399 2.86573 17.0534 3.4327C17.2633 3.97412 17.4061 4.59204 17.4486 5.49639C17.4588 5.72248 17.4673 5.91117 17.4741 6.10156L17.4792 6.26645C17.4943 6.88623 17.5008 7.5062 17.4988 8.12616L17.4996 8.76023V9.87367C17.5017 10.4939 17.4952 11.1142 17.4801 11.7342L17.475 11.8991C17.4682 12.0895 17.4597 12.2773 17.4495 12.5043C17.407 13.4086 17.2625 14.0257 17.0534 14.5671C16.8406 15.1347 16.5061 15.6488 16.0734 16.0733C15.6484 16.5053 15.1345 16.8397 14.5673 17.0532C14.0258 17.2632 13.4088 17.406 12.5044 17.4485C12.2775 17.4587 12.0896 17.4672 11.8993 17.474L11.7344 17.4791C11.1143 17.4942 10.4941 17.5007 9.87381 17.4986L9.23974 17.4995H8.12715C7.5069 17.5016 6.88666 17.4951 6.26659 17.4799L6.1017 17.4748C5.89993 17.4675 5.69821 17.459 5.49653 17.4493C4.59218 17.4068 3.97511 17.2623 3.43284 17.0532C2.86565 16.8402 2.3519 16.5057 1.92757 16.0733C1.49498 15.6485 1.16025 15.1345 0.946718 14.5671C0.736778 14.0257 0.593986 13.4086 0.551488 12.5043C0.542022 12.3026 0.533522 12.1009 0.525989 11.8991L0.521739 11.7342C0.506069 11.1142 0.498986 10.4939 0.50049 9.87367V8.12616C0.498118 7.5062 0.504352 6.88624 0.51919 6.26645L0.525139 6.10156C0.531939 5.91117 0.540438 5.72248 0.550638 5.49639C0.593136 4.59119 0.735928 3.97497 0.945867 3.4327C1.15952 2.86545 1.49491 2.35193 1.92842 1.92828C2.35246 1.49544 2.86589 1.1604 3.43284 0.946576C3.97511 0.736636 4.59133 0.593844 5.49653 0.551346L6.1017 0.525847L6.26659 0.521597C6.88637 0.505935 7.50633 0.498851 8.1263 0.500348L9.87381 0.501198ZM9.00005 4.75098C8.43696 4.74302 7.87791 4.84705 7.35537 5.05702C6.83283 5.267 6.35724 5.57873 5.95623 5.97411C5.55522 6.36949 5.23679 6.84063 5.01944 7.36015C4.8021 7.87966 4.69017 8.43719 4.69017 9.00034C4.69017 9.56348 4.8021 10.121 5.01944 10.6405C5.23679 11.16 5.55522 11.6312 5.95623 12.0266C6.35724 12.4219 6.83283 12.7337 7.35537 12.9437C7.87791 13.1536 8.43696 13.2577 9.00005 13.2497C10.1272 13.2497 11.2081 12.802 12.0051 12.005C12.8021 11.208 13.2498 10.127 13.2498 8.99991C13.2498 7.8728 12.8021 6.79185 12.0051 5.99486C11.2081 5.19787 10.1272 4.75098 9.00005 4.75098ZM9.00005 6.45089C9.33877 6.44465 9.67533 6.50597 9.99008 6.63126C10.3048 6.75655 10.5915 6.94331 10.8332 7.18062C11.075 7.41793 11.267 7.70104 11.3982 8.0134C11.5293 8.32577 11.5968 8.66113 11.5969 8.9999C11.597 9.33868 11.5295 9.67406 11.3985 9.98647C11.2675 10.2989 11.0755 10.5821 10.8338 10.8194C10.5921 11.0568 10.3056 11.2437 9.99087 11.3691C9.67616 11.4945 9.33962 11.5559 9.0009 11.5498C8.32464 11.5498 7.67607 11.2811 7.19787 10.8029C6.71968 10.3247 6.45104 9.67618 6.45104 8.99991C6.45104 8.32365 6.71968 7.67508 7.19787 7.19688C7.67607 6.71869 8.32464 6.45004 9.0009 6.45004L9.00005 6.45089ZM13.4623 3.47605C13.1881 3.48702 12.9288 3.60367 12.7387 3.80155C12.5486 3.99944 12.4424 4.26322 12.4424 4.53764C12.4424 4.81206 12.5486 5.07584 12.7387 5.27373C12.9288 5.47162 13.1881 5.58826 13.4623 5.59924C13.7441 5.59924 14.0143 5.4873 14.2136 5.28805C14.4128 5.08881 14.5248 4.81857 14.5248 4.53679C14.5248 4.25501 14.4128 3.98478 14.2136 3.78553C14.0143 3.58628 13.7441 3.47435 13.4623 3.47435V3.47605Z" fill="white"/>
</svg>
